<svg width="30" height="29" viewBox="0 0 30 29" fill="none" xmlns="http://www.w3.org/2000/svg">
<path d="M26.0728 1.09002L2.09012 25.0727C1.48838 25.6745 1.47518 26.638 2.06066 27.2235C2.64614 27.809 3.6097 27.7958 4.21144 27.194L28.1941 3.21134C28.7959 2.60959 28.8091 1.64604 28.2236 1.06055C27.6381 0.475067 26.6746 0.488267 26.0728 1.09002Z" fill="black"/>
<path d="M27.5518 25.4307L3.56913 1.44803C2.96738 0.846285 2.00383 0.833086 1.41834 1.41857C0.832859 2.00405 0.846059 2.96761 1.44781 3.56935L25.4305 27.5521C26.0323 28.1538 26.9958 28.167 27.5813 27.5815C28.1668 26.996 28.1536 26.0325 27.5518 25.4307Z" fill="black"/>
</svg>
