<svg>

    <symbol id="burgerMenu" width="37" height="29" viewBox="0 0 37 29" fill="currentColor" xmlns="http://www.w3.org/2000/svg">
        <path d="M35.4583 26H1.54167C0.690667 26 0 26.672 0 27.5C0 28.328 0.690667 29 1.54167 29H35.4583C36.3093 29 37 28.328 37 27.5C37 26.672 36.3093 26 35.4583 26Z"/>
        <path d="M35.5 0H14.5C13.672 0 13 0.672 13 1.5C13 2.328 13.672 3 14.5 3H35.5C36.328 3 37 2.328 37 1.5C37 0.672 36.328 0 35.5 0Z"/>
        <path d="M35.4583 9H1.54167C0.690667 9 0 9.672 0 10.5C0 11.328 0.690667 12 1.54167 12H35.4583C36.3093 12 37 11.328 37 10.5C37 9.672 36.3093 9 35.4583 9Z"/>
        <path d="M35.5 18H14.5C13.672 18 13 18.672 13 19.5C13 20.328 13.672 21 14.5 21H35.5C36.328 21 37 20.328 37 19.5C37 18.672 36.328 18 35.5 18Z"/>
    </symbol>

    <svg id="burgerMenuClose" width="30" height="29" viewBox="0 0 30 29" fill="currentColor" xmlns="http://www.w3.org/2000/svg">
        <path d="M26.0728 1.09002L2.09012 25.0727C1.48838 25.6745 1.47518 26.638 2.06066 27.2235C2.64614 27.809 3.6097 27.7958 4.21144 27.194L28.1941 3.21134C28.7959 2.60959 28.8091 1.64604 28.2236 1.06055C27.6381 0.475067 26.6746 0.488267 26.0728 1.09002Z"/>
        <path d="M27.5518 25.4307L3.56913 1.44803C2.96738 0.846285 2.00383 0.833086 1.41834 1.41857C0.832859 2.00405 0.846059 2.96761 1.44781 3.56935L25.4305 27.5521C26.0323 28.1538 26.9958 28.167 27.5813 27.5815C28.1668 26.996 28.1536 26.0325 27.5518 25.4307Z"/>
    </svg>

</svg>